{
  "asset": {
    "version": "2.0",
    "generator": "THREE.GLTFExporter"
  },
  "scene": 0,
  "scenes": [
    {
      "nodes": [0],
      "name": "Scene"
    }
  ],
  "nodes": [
    {
      "matrix": [
        0.8582791090011597,
        0,
        0,
        0,
        0,
        -1.1531739963040394e-7,
        0.8582790796235112,
        0,
        0,
        -0.8582790796235112,
        -1.1531739963040394e-7,
        0,
        -4.005947113037109,
        -0.008502483367919922,
        0,
        1
      ],
      "name": "Possu_low2",
      "mesh": 0
    }
  ],
  "bufferViews": [
    {
      "buffer": 0,
      "byteOffset": 0,
      "byteLength": 96744,
      "target": 34962,
      "byteStride": 12
    },
    {
      "buffer": 0,
      "byteOffset": 96744,
      "byteLength": 96744,
      "target": 34962,
      "byteStride": 12
    },
    {
      "buffer": 0,
      "byteOffset": 193488,
      "byteLength": 64496,
      "target": 34962,
      "byteStride": 8
    },
    {
      "buffer": 0,
      "byteOffset": 257984,
      "byteLength": 87396,
      "target": 34963
    }
  ],
  "buffers": [
    {
      "byteLength": 345380,
      "uri": "data:application/octet-stream;base64,"
    }
  ],
  "accessors": [
    {
      "bufferView": 0,
      "componentType": 5126,
      "count": 8062,
      "max": [1.9557985067367554, 1.0733695030212402, -0.005659818649291992],
      "min": [-1.953019142150879, -1.536990761756897, -4.878623008728027],
      "type": "VEC3"
    },
    {
      "bufferView": 1,
      "componentType": 5126,
      "count": 8062,
      "max": [0.999969482421875, 0.999908447265625, 0.999969482421875],
      "min": [-0.999908447265625, -0.999969482421875, -0.999237060546875],
      "type": "VEC3"
    },
    {
      "bufferView": 2,
      "componentType": 5126,
      "count": 8062,
      "max": [0.9897819757461548, 0.9996313452720642],
      "min": [0.00036863464629277587, 0.000015020370483398438],
      "type": "VEC2"
    },
    {
      "bufferView": 3,
      "componentType": 5123,
      "count": 43698,
      "max": [8061],
      "min": [0],
      "type": "SCALAR"
    }
  ],
  "materials": [
    {
      "pbrMetallicRoughness": {
        "baseColorFactor": [
          0.800000011920929,
          0.800000011920929,
          0.800000011920929,
          1
        ],
        "metallicFactor": 0,
        "roughnessFactor": 0.5
      },
      "doubleSided": true,
      "name": "Default OBJ.002"
    }
  ],
  "meshes": [
    {
      "primitives": [
        {
          "mode": 4,
          "attributes": {
            "POSITION": 0,
            "NORMAL": 1,
            "TEXCOORD_0": 2
          },
          "indices": 3,
          "material": 0
        }
      ]
    }
  ]
}
